<svg width="62" height="62" viewBox="0 0 62 62" fill="none" xmlns="http://www.w3.org/2000/svg">
<path d="M53.4393 30.6376V57.4285C53.4393 57.653 53.3951 57.8754 53.3091 58.0829C53.2232 58.2903 53.0972 58.4789 52.9385 58.6377C52.7797 58.7965 52.5911 58.9224 52.3837 59.0084C52.1762 59.0943 51.9538 59.1385 51.7293 59.1385H9.54793C9.32336 59.1385 9.10099 59.0943 8.89352 59.0084C8.68605 58.9224 8.49753 58.7965 8.33874 58.6377C8.17995 58.4789 8.05398 58.2903 7.96805 58.0829C7.88211 57.8754 7.83788 57.653 7.83788 57.4285V30.6376M30.6386 59.1385V16.3872M30.6386 16.3872H17.8132C15.9235 16.3872 14.1111 15.6365 12.7749 14.3002C11.4387 12.964 10.688 11.1517 10.688 9.26194C10.688 7.37222 11.4387 5.55989 12.7749 4.22365C14.1111 2.88741 15.9235 2.13672 17.8132 2.13672C27.7885 2.13672 30.6386 16.3872 30.6386 16.3872ZM30.6386 16.3872H43.464C45.3537 16.3872 47.1661 15.6365 48.5023 14.3002C49.8385 12.964 50.5892 11.1517 50.5892 9.26194C50.5892 7.37222 49.8385 5.55989 48.5023 4.22365C47.1661 2.88741 45.3537 2.13672 43.464 2.13672C33.4887 2.13672 30.6386 16.3872 30.6386 16.3872ZM57.4294 16.3872H3.84775C3.39421 16.3872 2.95926 16.5673 2.63856 16.888C2.31786 17.2087 2.1377 17.6437 2.1377 18.0972V28.9276C2.1377 29.3811 2.31786 29.8161 2.63856 30.1368C2.95926 30.4575 3.39421 30.6376 3.84775 30.6376H57.4294C57.883 30.6376 58.3179 30.4575 58.6386 30.1368C58.9593 29.8161 59.1395 29.3811 59.1395 28.9276V18.0972C59.1395 17.6437 58.9593 17.2087 58.6386 16.888C58.3179 16.5673 57.883 16.3872 57.4294 16.3872Z" stroke="#0095AE" stroke-width="4.27514" stroke-linecap="round" stroke-linejoin="round"/>
</svg>
