<svg width="119" height="118" viewBox="0 0 119 118" fill="none" xmlns="http://www.w3.org/2000/svg"><g clip-path="url(#clip0_2230_66125)"><path d="M56.5 70.8c1.6 2.1 5.2 2.3 6.1-.3-1.9.1-3.9.2-6.1.3zm-20.7-1.3c1.6 2 5.7 6.7 5.1 1.1.6-.6 1.1-1.4.8-2.6-2 .8-3.6 2-5.9 1.5zm24.8-2.8c-.6.4-1.2.3-1.8 0-.9-.4-1.7-.2-2.6 0-1 .2-2 .4-3-.2-.3 2.5 1.3 2.2 2.9 1.9.9-.1 1.9-.3 2.5 0 .7.2 1.4.1 2.1 0 .7-.1 1.5-.3 2.2 0 1.4.5 3.6.4 3.1-1.7-.9.6-1.8.3-2.7 0-.5-.2-1.1-.3-1.6-.3-.3-.1-.7 0-1.1.3zM54 113.9c25.2-1.6 45.2-33.7 33-56.5-.2-.4.2-.8.6-.6 4.5 2.3 8.2 6 11.5 9.7l.1.1c6.1 9.6 6 18.8 2.1 26.5-1.1 2.2-2.4 4.2-4 6.1-9.9 10.2-23.8 16.5-39.1 16.3-1.5-.1-2.9-.3-4.3-.5-1.2-.3-4.8-1-4.8-1.2 0-.1.6 0 1.5 0 .6 0 1.3.1 2.1.1H54zM8.2 46.2v.1c-.1 0 0-.1 0-.1zm.4-1.4s0 .1-.1.2c.1-.1.1-.2.1-.2zM112.2 60c-7.5-8.3-17.9-12.7-27.9-16.9C70.1 37 53.5 26.7 54.4 9.3V9c1.5-.1 3.1-.2 4.6-.2 29.1 0 54.5 24.4 55.1 53.4l-1.9-2.2zM36.8 6.1c-.6.3-1.1.8-1.2 1.5-.1.8-.2 1.6-.1 2.4v.8c0 .2.1.3.1.5s.1.3.1.5c.7 4.2 1.5 8.4 3.5 12.2 7.5 14.8 19.9 20.3 34.4 25.7 4.9 1.4.8 14.3-.4 17.9-2.1 5.3-5.3 9.8-9.6 13.6-3.1 3-6.9-1.5-9.3-3.5-1.2-1.2-1.4 0-1.1 1.3.5 3.4.8 6.2.7 9.6 0 .6.1 3.1 0 3.7-.2 2.4 0 3.8-1.2 5.8-.1.2-.5.3-.7.1-5.8-4.4-12-8.5-19.5-9-4.4-1-18.9-.1-18.2-6.6v-.1c1.8-8.8 10.1-3.4 15.4-1.5 2.9 1.1 8.6 2.7 9.5-1.6v-.1c.1-1.4.4-3.6-.8-4.5-.4-.3-.9.1-.7.5 1.7 5.9-5.5 4.7-9.2 2.6-3.7-1.7-8.3-4.2-12-2.2-.4.2-.9-.3-.6-.7 2.2-3 5.7-5 8.5-7.5 5.1-4.7 9.1-10.1 12.2-16.2.2-.4.8-.3.9.1.6 3.6 2.8 6.7 4.8 9.7.8 1.4.7 1.7-.7 2.5-1.1.4-2.1 3-.4 2.9.2 0 .4-.2.4-.4.1-1.2.2-1.3 1.8-1.9 5-2.6-1.7-6.6-2.6-9.9v-.1c-2.3-4.7-.6-10-1-15.1 0-.5-.8-.6-.9-.1-.3 1.1-.6 2.5-1.2 4.5-2.5 7.9-6.2 13-6.4 13.3-5.6 8.7-13.7 11.1-18.7 18.9-1.7 2.6-2.2 5.4-.8 8.3 3.7 9.2 16.6 5 24.2 8.3h.1c6.6 1.6 11.3 6.8 16 11.3h.1c5.2 3.6 3.1-16.5 4.2-21.1.1-.3.4-.4.7-.3 2.6 1.4 5.4 2.7 7.7.4 9-6.7 12.9-16.9 14.7-27.7.1-.4.6-.5.8-.2 14.3 16.6 4.1 43.1-13.8 52.9-8.1 4.5-18.8 5.2-27.7 2.5-.9-.3-1.7-.6-2.5-.9-7.1-3.3-14-8.2-19.2-14.4-2.6-3.3-4.8-6.9-6.5-10.7-.5-1.3-1-2.7-1.4-4.1v-.1c-.5-9.5 18.1-20 23.8-32.5 4.3-11.1 3.2-22.1.5-32.1-.2-.6-.3-1.1-.5-1.6.2.5.3 1.1.5 1.7l-.5-1.5c-.3-.9-.7-1.7-1.1-2.8-.1-.3-.4-.4-.6-.3-10.4 4.5-18.6 12.5-23.9 22.7C0 47.6.6 60.8 1.3 66.2c0 .4.5.5.8.3.5-.4 1-.8 1.3-1 .1-.1.2-.2.2-.3.1-1.1 1.4-7.6 3.4-14.8.1-.4.2-.9.3-1.3.6-2 1.3-4.1 2-6.2.1-.2.1-.3.2-.5 0-.1.1-.2.1-.3.2-.4.3-.7.5-1.1v-.1c.2-.4.3-.8.5-1.2.1-.1.1-.2.2-.3.1-.3.3-.6.4-.8.1-.1.1-.2.2-.4.2-.4.4-.7.6-1.1 0 0 0-.1.1-.1.2-.3.4-.7.5-1 .1-.1.1-.3.2-.4.1-.2.3-.5.4-.8.1-.1.1-.2.2-.4.2-.3.4-.7.6-1 .1-.1.1-.2.2-.3.2-.3.3-.5.5-.8.1-.1.2-.3.3-.4.2-.2.3-.4.5-.7.1-.1.2-.2.3-.4.2-.3.5-.6.7-.9l.3-.3c.2-.2.3-.4.5-.6.1-.1.2-.3.3-.4.1-.1.1-.2.2-.2 2.5-2.8 3.6-3.6 4.5-3.9.3-.1.7-.1.8.2.9 3.1 1.3 6.4 1.3 9.7-.1 9.2-3.6 18.1-9.6 25.1-2.9 3.3-5.9 6.5-8.5 10.1-.6.8-1.2 1.7-1.7 2.5 0 0 0 .1-.1.1-1 3-.6 6.6.7 10.2 3.5 9.7 13.4 20.2 19.8 24.5 2.5 1.9 5.2 3.4 8.1 4.7 7.9 3.9 16.9 6.1 26.4 6.1 17.9 0 33.9-7.8 44.7-20.2 2.6-3 4.6-6.6 5.6-10.5.6-2.3.9-4.7.6-7.1C109.7 64.1 91.3 52.8 77 47c-11.8-5.5-25.9-10.9-30.4-24.4-1.3-3.4-2.1-6.9-2.6-10.5V12c.1-.6.4-1 .9-1.3.9-.2 1.8-.5 2.7-.7.2.1.3.2.3.4 1.2 9.5 7.1 18.7 14.7 24.2C73.8 41.9 86.6 46 98 52.7c7.8 4.6 14.4 16.3 15.4 18.1.1.1.2.2.3.2l.1.1.1.1h.8c.2 0 .4-.1.5-.2.1-.1.1-.1.1-.2v-.6c0-.1 0-.1.1-.2v-.1c0-.1 0-.1.1-.2v-.1c0-.1 0-.1.1-.2v-.1c0-.1 0-.1.1-.2V69c0-.1 0-.2.1-.2v-.1c0-.1 0-.2.1-.3v-.1c0-.1.1-.2.1-.3v-.1c0-.1.1-.2.1-.3v-.1c0-.1.1-.2.1-.4.1-.6.3-1.2.4-1.8h.1l-.1-.1c.5-2.3.9-5.2 1-8.5C118.7 25 92.1 1.6 59.5 1.6c-8.1 0-15.7 1.6-22.7 4.5z" fill="#29B7C1"/></g><defs><clipPath id="clip0_2230_66125"><path fill="#fff" d="M0 0h118.7v117.7H0z"/></clipPath></defs></svg>