<?xml version="1.0" encoding="UTF-8"?>
<svg id="Layer_1" xmlns="http://www.w3.org/2000/svg" xmlns:xlink="http://www.w3.org/1999/xlink" version="1.1" viewBox="0 0 634.6 634.6">
  <!-- Generator: Adobe Illustrator 29.5.0, SVG Export Plug-In . SVG Version: 2.1.0 Build 137)  -->
  <defs>
    <style>
      .st0 {
        fill: none;
      }

      .st1, .st2 {
        fill: #bfff29;
      }

      .st1, .st3 {
        stroke: #fff;
        stroke-miterlimit: 10;
        stroke-width: 1.5px;
      }

      .st4 {
        fill: #452783;
      }

      .st3 {
        fill: #8056d5;
      }

      .st5 {
        clip-path: url(#clippath);
      }
    </style>
    <clipPath id="clippath">
      <rect class="st0" width="634.6" height="634.6"/>
    </clipPath>
  </defs>
  <g class="st5">
    <g>
      <path class="st3" d="M323.8,328.5l154,261.6c-.2.1-.4.2-.6.4-46.9,27.6-101.6,43.3-160,43.3s-109.9-14.9-156-41c-.2-.1-.4-.2-.6-.3l147.9-259.8,1.3-2.3,7.4-13,4.7,8,1.8,3.2Z"/>
      <path class="st1" d="M317.2,317.3l-7.3,13-1.3,2.3-147.3,260.2c-.2-.1-.4-.2-.6-.3C65.9,538.3,1.8,436.7.8,319.9c0-.2,0-.5,0-.7l302.9-1.9h13.6Z"/>
      <path class="st3" d="M317.2,317.3h-13.6c0,.1-302.9,2.7-302.9,2.7,0-.2,0-.5,0-.7,0-.7,0-1.3,0-2C.8,201.1,63.4,99.6,156.7,44.5c.2-.1.4-.2.6-.4l152.4,260.2,7.6,12.9Z"/>
      <path class="st1" d="M473.2,41.8c.2.1.4.2.6.3l-151.9,267-4.6,8.1-7.6-12.9L156.7,44.5c.2-.1.4-.2.6-.4C204.2,16.6,258.9.8,317.3.8s109.9,14.9,155.9,41Z"/>
      <path class="st3" d="M633.8,314.6c0,.2,0,.5,0,.7l-302.9,1.9h-13.6c0,0,4.6-8.1,4.6-8.1L473.2,41.8c.2.1.4.2.6.3,94.8,54.1,159,155.7,160,272.5Z"/>
      <path class="st1" d="M633.8,317.3c0,116.2-62.6,217.8-155.9,272.8-.2.1-.4.2-.6.4l-153.4-262-1.8-3.2-4.7-8h11.1c0,0,2.4,0,2.4,0l302.9-2.6c0,.2,0,.5,0,.7,0,.7,0,1.3,0,2Z"/>
      <g id="Repeat_group_1_x5F_inner">
        <path class="st4" d="M312.1,136.2c-4.1,0-7.7-.7-10.8-2-3.1-1.4-5.6-3.2-7.4-5.6-1.8-2.4-2.6-5.1-2.6-8.1,0-2.4.5-4.5,1.5-6.5,1-2,2.4-3.6,4.2-4.9,1.8-1.3,3.8-2.2,6-2.5v-.4c-2.9-.6-5.2-2.1-7-4.4-1.8-2.3-2.6-5-2.6-8,0-2.9.8-5.5,2.4-7.7,1.6-2.3,3.8-4,6.7-5.3,2.8-1.3,6-2,9.7-2,3.6,0,6.8.6,9.6,2,2.8,1.3,5.1,3.1,6.7,5.3,1.6,2.3,2.5,4.8,2.5,7.7,0,3-.9,5.7-2.7,8-1.8,2.3-4.1,3.8-6.9,4.4v.4c2.2.4,4.2,1.2,5.9,2.5,1.8,1.3,3.2,2.9,4.2,4.9,1.1,2,1.6,4.1,1.6,6.5,0,3-.9,5.7-2.7,8.1-1.8,2.4-4.2,4.2-7.4,5.6-3.1,1.4-6.7,2.1-10.7,2.1ZM312.1,128.4c2.1,0,3.9-.4,5.5-1.1,1.5-.7,2.8-1.8,3.6-3.1.9-1.3,1.3-2.8,1.3-4.5,0-1.8-.5-3.4-1.4-4.7-.9-1.4-2.1-2.5-3.7-3.2-1.5-.8-3.3-1.2-5.3-1.2-2,0-3.8.4-5.4,1.2-1.6.8-2.8,1.9-3.7,3.3-.9,1.4-1.3,2.9-1.3,4.7,0,1.7.4,3.2,1.3,4.5.9,1.3,2.1,2.3,3.6,3,1.6.7,3.4,1.1,5.5,1.1ZM312,102.8c1.7,0,3.2-.3,4.5-1,1.3-.7,2.4-1.7,3.1-2.9.8-1.2,1.2-2.7,1.2-4.3,0-1.6-.4-3-1.2-4.2-.7-1.2-1.8-2.2-3.1-2.8-1.3-.7-2.9-1-4.6-1-1.8,0-3.3.3-4.7,1-1.3.7-2.4,1.6-3.1,2.8-.7,1.2-1.1,2.6-1.1,4.2,0,1.6.4,3.1,1.1,4.3.8,1.2,1.8,2.2,3.1,2.9,1.4.7,2.9,1,4.6,1Z"/>
        <path class="st2" d="M461.2,210.4l6.3-3.7,26.2,7.3c2.6.7,4.8,1.2,6.7,1.5,1.9.3,3.6.4,5.1.3,1.5-.1,2.9-.6,4.3-1.4,1.5-.9,2.6-2,3.3-3.3.7-1.3,1-2.8.9-4.3-.1-1.6-.6-3.1-1.5-4.7-.9-1.6-2.1-2.8-3.4-3.6-1.3-.8-2.8-1.2-4.4-1.2-1.6,0-3.2.6-4.8,1.5l-4.8-8.4c3.1-1.8,6.2-2.6,9.2-2.5,3.1,0,6,1,8.6,2.7,2.7,1.8,4.9,4.2,6.8,7.4,1.9,3.2,2.9,6.5,3.1,9.6.2,3.2-.3,6-1.7,8.6-1.3,2.6-3.3,4.7-6,6.3-1.8,1.1-3.8,1.7-6,2.1-2.2.3-4.8.2-7.9-.3-3.1-.5-7.1-1.4-12-2.8l-13.3-3.4-.3.2,12.2,21.1-7.3,4.2-19.2-33.2Z"/>
        <path class="st4" d="M527,424.7l-48.5-27.9,5.1-8.8,40,23,.2-.3-.7-15.5,8.1,4.6.8,16.5-4.8,8.4ZM461,425.6c1.8-3.2,4-5.6,6.7-7.5,2.6-1.8,5.4-2.8,8.4-3.1,2.9-.3,5.8.3,8.5,1.8l-4.9,8.5c-2.1-1-4.2-1.1-6.4-.2-2.1.8-3.9,2.4-5.1,4.6-1,1.7-1.5,3.5-1.5,5.3,0,1.8.5,3.5,1.5,5.1,1,1.6,2.3,2.9,4.2,3.9,1.8,1.1,3.7,1.6,5.6,1.6,1.9,0,3.6-.4,5.2-1.3,1.6-.9,2.9-2.2,4-4,.9-1.4,1.4-3,1.7-4.8.3-1.7.2-3.3-.3-4.6l5.9-7.2,23.6,16.9-16.2,28.2-7.3-4.2,12-20.9-12.1-8.8-.2.3c.5,1.5.7,3.3.4,5.3-.2,2.1-.9,4.1-2,6-1.7,2.9-3.9,5.2-6.6,6.7-2.7,1.5-5.6,2.2-8.8,2.2-3.2,0-6.3-1-9.4-2.8-3.2-1.8-5.6-4.2-7.3-7.2-1.6-2.9-2.4-6.1-2.4-9.5,0-3.4,1.1-6.9,3.1-10.3Z"/>
        <path class="st2" d="M328,501.6l-23.8,47.2v.4h27.6s0,8.4,0,8.4h-38.1s0-8.6,0-8.6l23.7-47.4h10.5Z"/>
        <path class="st4" d="M113.6,452.5l48.5-28.1,5.1,8.8-39.9,23.1.2.3,13.8,7.1-8,4.7-14.7-7.6-4.8-8.4ZM145.5,393.7c2.3,3.9,3.2,7.8,2.9,11.7-.4,3.9-2,7.7-4.9,11.4-2.9,3.7-7,7-12.3,10.1-5.3,3-10.2,4.9-14.8,5.6-4.6.7-8.7.2-12.2-1.5-3.6-1.7-6.5-4.4-8.7-8.3-2.2-3.9-3.2-7.8-2.9-11.7.3-3.9,1.9-7.7,4.8-11.3,2.9-3.7,6.9-7,12.2-10.1,5.3-3.1,10.3-4.9,14.9-5.6,4.6-.7,8.7-.2,12.3,1.5,3.6,1.6,6.5,4.4,8.8,8.3ZM138.1,398c-1.8-3-4.6-4.6-8.6-4.6-4,0-8.9,1.6-14.8,5-3.8,2.2-6.9,4.5-9,6.8-2.2,2.3-3.5,4.6-3.9,6.8-.5,2.2-.2,4.4,1,6.4,1.7,3,4.6,4.5,8.6,4.5,4,0,8.9-1.6,14.7-5,3.9-2.2,6.9-4.5,9.1-6.8,2.2-2.3,3.5-4.6,4-6.9.5-2.2.1-4.4-1-6.4Z"/>
        <path class="st2" d="M154.3,227.4c-1.8,3.2-4,5.6-6.7,7.5-2.6,1.8-5.4,2.8-8.4,3.1-2.9.3-5.8-.3-8.5-1.8l4.9-8.5c2.1,1,4.2,1.1,6.4.2,2.1-.8,3.9-2.4,5.1-4.6,1-1.7,1.5-3.5,1.5-5.3,0-1.8-.5-3.5-1.5-5.1-1-1.6-2.3-2.9-4.2-3.9-1.8-1.1-3.7-1.6-5.6-1.6-1.9,0-3.6.4-5.2,1.3-1.6.9-2.9,2.2-4,4-.9,1.4-1.4,3-1.7,4.8-.3,1.7-.2,3.3.3,4.6l-5.9,7.2-23.6-16.9,16.2-28.2,7.3,4.2-12,20.9,12.1,8.8.2-.3c-.5-1.5-.7-3.3-.4-5.3.2-2.1.9-4.1,2-6,1.7-2.9,3.9-5.2,6.6-6.7,2.7-1.5,5.6-2.2,8.8-2.2s6.3,1,9.4,2.8c3.2,1.8,5.6,4.2,7.3,7.2,1.6,2.9,2.4,6.1,2.4,9.5,0,3.4-1.1,6.9-3.1,10.3Z"/>
      </g>
    </g>
  </g>
</svg>